<svg width="113" height="104" viewBox="0 0 113 104" fill="none" xmlns="http://www.w3.org/2000/svg">
<path d="M22.8773 93.7793C23.2239 93.4222 23.6861 93.1048 24.1482 92.9064C24.6489 92.708 25.1881 92.589 25.7658 92.589C26.3821 92.589 26.9598 92.708 27.499 92.9857C28.0382 93.2238 28.5003 93.6206 28.9625 94.1364L30.8497 92.3509C30.2335 91.5971 29.5017 91.0019 28.6159 90.6052C27.73 90.2084 26.7287 90.01 25.6118 90.01C24.6104 90.01 23.7246 90.1687 22.8773 90.4861C22.03 90.8035 21.2982 91.2797 20.682 91.9145C20.0658 92.5096 19.5651 93.2238 19.2185 94.057C18.8718 94.8902 18.7178 95.8028 18.7178 96.755C18.7178 97.7469 18.8718 98.6595 19.2185 99.453C19.5651 100.286 20.0272 101 20.6435 101.596C21.2597 102.191 21.9915 102.667 22.8388 103.024C23.6861 103.341 24.5719 103.5 25.5733 103.5C26.6902 103.5 27.6915 103.302 28.5774 102.905C29.4632 102.508 30.1949 101.913 30.8112 101.159L28.924 99.3736C28.5003 99.8894 27.9996 100.286 27.4604 100.524C26.9213 100.762 26.3435 100.921 25.7273 100.921C25.1496 100.921 24.5719 100.802 24.1097 100.604C23.609 100.405 23.1854 100.127 22.8388 99.7307C22.4921 99.3736 22.184 98.8975 21.9915 98.4214C21.7989 97.9056 21.6833 97.3501 21.6833 96.7153C21.6833 96.0805 21.7989 95.525 21.9915 95.0092C22.2225 94.6125 22.4921 94.176 22.8773 93.7793Z" fill="#53BCB5"/>
<path d="M44.5605 90.2877L38.8989 103.381H41.903L43.0199 100.564H48.9126L50.0295 103.381H53.1106L47.4105 90.2877H44.5605ZM43.9828 98.2627L45.9855 93.2635L47.9882 98.2627H43.9828Z" fill="#53BCB5"/>
<path d="M70.9043 99.1752C71.7131 98.8181 72.3678 98.2627 72.7915 97.5485C73.2536 96.8343 73.4462 96.0011 73.4462 95.0489C73.4462 94.057 73.2151 93.2238 72.7915 92.5096C72.3293 91.7954 71.7131 91.24 70.9043 90.8829C70.0955 90.4861 69.0941 90.3274 67.9772 90.3274H62.4697V103.421H65.3968V99.7704H67.9387C67.9772 99.7704 68.0157 99.7704 68.0928 99.7704L70.5192 103.421H73.6773L70.9043 99.1752ZM69.8259 93.3428C70.2881 93.7396 70.4806 94.295 70.4806 95.0092C70.4806 95.7234 70.2496 96.2789 69.8259 96.6756C69.3637 97.0724 68.709 97.2708 67.7847 97.2708H65.3968V92.708H67.7847C68.709 92.7477 69.4022 92.946 69.8259 93.3428Z" fill="#53BCB5"/>
<path d="M86.7337 100.921V97.9056H92.6263V95.5647H86.7337V92.708H93.3966V90.2877H83.8066V103.381H93.6277V100.921H86.7337Z" fill="#53BCB5"/>
<path d="M0 96.8344L14.7894 97.1915V96.517" fill="#53BCB5"/>
<path d="M112.846 96.8344L98.0181 97.1915V96.517" fill="#53BCB5"/>
<path d="M3.38923 77.9881H9.9366V75.3694H3.38923V72.235H10.7839V69.537H0.154053V84.0586H11.0535V81.3606H3.38923V77.9881Z" fill="#047B8E"/>
<path d="M32.2363 69.537H28.693L25.5349 74.2188L22.2997 69.537H18.6024L23.5322 76.6391L18.3328 84.0586H22.0686L25.4193 79.0197L28.8471 84.0586H32.5829L27.345 76.52L32.2363 69.537Z" fill="#047B8E"/>
<path d="M49.6831 70.1718C48.7588 69.7354 47.6804 69.537 46.4094 69.537H40.3242V84.0586H43.5979V80.0512H46.4479C47.7189 80.0512 48.7973 79.8529 49.7216 79.4164C50.646 78.98 51.3392 78.3848 51.8399 77.5913C52.3406 76.7978 52.5717 75.8852 52.5717 74.7743C52.5717 73.6633 52.3406 72.7508 51.8399 71.9573C51.3007 71.2034 50.6075 70.5686 49.6831 70.1718ZM48.4892 76.6391C47.9885 77.0755 47.2567 77.3136 46.2169 77.3136H43.5594V72.2747H46.2169C47.2182 72.2747 47.9885 72.5127 48.4892 72.9492C48.9899 73.3856 49.2209 74.0204 49.2209 74.814C49.2595 75.5678 48.9899 76.2026 48.4892 76.6391Z" fill="#047B8E"/>
<path d="M64.5496 77.9881H71.097V75.3694H64.5496V72.235H71.9443V69.537H61.3145V84.0586H72.2139V81.3606H64.5496V77.9881Z" fill="#047B8E"/>
<path d="M84.962 73.4253C85.3471 73.0285 85.8478 72.7111 86.387 72.4731C86.9262 72.235 87.5424 72.1557 88.1972 72.1557C88.8904 72.1557 89.5452 72.3144 90.1229 72.5921C90.7006 72.8698 91.2398 73.3063 91.7405 73.8617L93.8202 71.8779C93.1655 71.0447 92.3182 70.4099 91.3168 69.9734C90.3155 69.537 89.2371 69.3386 88.0046 69.3386C86.8877 69.3386 85.8863 69.537 84.962 69.8941C84.0377 70.2512 83.2289 70.767 82.5356 71.4415C81.8424 72.116 81.3032 72.9095 80.918 73.8221C80.5329 74.7346 80.3403 75.7265 80.3403 76.8375C80.3403 77.9484 80.5329 78.9403 80.918 79.8529C81.3032 80.7654 81.8424 81.559 82.5356 82.2335C83.2289 82.908 84.0377 83.4238 84.962 83.7808C85.8863 84.1379 86.8877 84.3363 88.0046 84.3363C89.2371 84.3363 90.354 84.0983 91.3553 83.6618C92.3567 83.2254 93.1655 82.5905 93.8587 81.7177L91.779 79.7338C91.2783 80.329 90.7776 80.7654 90.1614 81.0432C89.5837 81.3209 88.9289 81.4796 88.2357 81.4796C87.581 81.4796 86.9647 81.3606 86.4255 81.1622C85.8863 80.9241 85.3857 80.6067 85.0005 80.21C84.6154 79.8132 84.2688 79.2974 84.0762 78.7419C83.8451 78.1865 83.7296 77.5516 83.7296 76.8375C83.7296 76.163 83.8451 75.5281 84.0762 74.933C84.2302 74.3379 84.5384 73.8221 84.962 73.4253Z" fill="#047B8E"/>
<path d="M100.714 69.537V72.2747H105.259V84.0586H108.494V72.2747H113V69.537H100.714Z" fill="#047B8E"/>
<path d="M76.6813 40.9303C76.6813 44.7392 73.6772 47.7943 70.0184 47.7943H47.4492V52.8332H70.0184C76.4117 52.8332 81.6111 47.4769 81.6111 40.8906V37.5578H76.7198V40.9303H76.6813Z" fill="#53BCB5"/>
<path d="M70.0183 7.68146H47.4491H47.1025H46.7559H44.4835C43.5592 7.68146 42.6734 7.80049 41.7876 7.95919C41.672 7.99887 41.5565 7.99887 41.4409 8.03855C41.3254 8.07822 41.2099 8.1179 41.0943 8.1179C35.5483 9.66528 31.4658 14.9026 31.4658 21.0921V39.3829C31.4658 45.5724 35.5483 50.8097 41.0943 52.3571V47.3182V47.0008C38.3213 45.6518 36.3571 42.7554 36.3571 39.3829V21.1318C36.3571 17.7593 38.2828 14.8629 41.0943 13.5139C41.2099 13.4742 41.3254 13.3949 41.4409 13.3552C41.5565 13.3155 41.672 13.2362 41.7876 13.1965C42.6349 12.8791 43.5592 12.7204 44.4835 12.7204H46.7559H47.1025H47.4491H70.0183C73.7157 12.7204 76.6812 15.8151 76.6812 19.5844V22.7585H81.5725V19.5844C81.611 13.0378 76.4116 7.68146 70.0183 7.68146Z" fill="#53BCB5"/>
<path d="M46.7173 0.5H41.749V7.24499C42.6348 7.04661 43.5592 6.96726 44.445 6.96726H46.7173V5.18182H71.3278V0.5H46.7173Z" fill="#047B8E"/>
<path d="M46.7173 53.5871V53.23V52.8729V47.834V47.4769V47.1198V31.6857H68.4007V27.0038H46.7173V13.4742H44.445C43.5977 13.4742 42.7889 13.6329 41.9801 13.9106L41.749 13.99V46.5246V46.9214V47.3182V52.5555V52.9126V53.2696V59.8162H71.3278V55.1344H46.7173V53.5871Z" fill="#047B8E"/>
</svg>
